PathFileType	4	(X/Y/Z)	TVC_16_BWA3_walk_RCNL2025.trc
DataRate	CameraRate	NumFrames	NumMarkers	Units	OrigDataRate	OrigDataStartFrame	OrigNumFrames
100	100	9	27	mm	100	77	615
Frame#	Time	R_Shoulder			L_Shoulder			C7			J_Notch			R_Elbow			L_Elbow			R_Wrist			L_Wrist			R_Asis			L_Asis			R_Psis			L_Psis			Sacral			Thoracic			Sternum			R_Thigh_Lateral			R_Knee_Lateral			R_Shank_Lateral			R_Ankle_Lateral			R_Heel			R_Toe			L_Thigh_Lateral			L_Knee_Lateral			L_Shank_Lateral			L_Ankle_Lateral			L_Heel			L_Toe		
		X1	Y1	Z1	X2	Y2	Z2	X3	Y3	Z3	X4	Y4	Z4	X5	Y5	Z5	X6	Y6	Z6	X7	Y7	Z7	X8	Y8	Z8	X9	Y9	Z9	X10	Y10	Z10	X11	Y11	Z11	X12	Y12	Z12	X13	Y13	Z13	X14	Y14	Z14	X15	Y15	Z15	X16	Y16	Z16	X17	Y17	Z17	X18	Y18	Z18	X19	Y19	Z19	X20	Y20	Z20	X21	Y21	Z21	X22	Y22	Z22	X23	Y23	Z23	X24	Y24	Z24	X25	Y25	Z25	X26	Y26	Z26	X27	Y27	Z27
77	0.76000000	-533.132446	1292.887207	42.524727	-519.094788	1284.009888	-278.509094	-577.848694	1346.461670	-112.366570	-460.169952	1199.176758	-102.858131	-607.915710	993.496948	137.619034	-528.358765	961.245728	-342.765533	-531.787476	774.548676	158.624977	-435.262787	771.306091	-286.730942	-553.829407	858.442810	11.855433	-560.241455	879.309387	-253.539398	-725.867493	912.179260	-65.695786	-725.081726	915.304810	-172.703415	-725.474609	913.742035	-119.199600	-683.602478	1094.876709	-119.755119	-458.344696	1004.766418	-113.710587	-544.355591	602.660095	115.385246	-421.090027	462.282288	49.050983	-473.577789	315.066437	100.599953	-532.548157	102.264435	27.063133	-573.743591	99.557449	-30.180155	-414.107819	65.575775	5.150420	-554.714172	585.130676	-322.391632	-517.582886	418.818634	-207.975388	-574.432434	271.335358	-264.740448	-639.936462	60.501286	-173.930481	-686.585510	61.824760	-131.372238	-509.026947	39.855846	-129.233414
78	0.77000000	-528.679932	1292.714722	42.556206	-514.936096	1284.318970	-278.512024	-573.459656	1346.536621	-112.203178	-456.040131	1199.042603	-103.037842	-605.612122	993.800354	137.468414	-524.997559	961.613281	-343.159393	-529.816147	774.814117	159.216499	-431.883347	771.869202	-286.514008	-550.146973	858.494080	11.586701	-557.224121	879.425781	-253.859100	-722.122620	912.668213	-65.512726	-721.729309	915.815186	-172.490768	-721.925964	914.241699	-119.001747	-679.661316	1095.196777	-119.576782	-454.629822	1004.603516	-114.386948	-541.423828	602.357361	115.586143	-418.212921	462.238007	48.758556	-462.849304	313.544495	100.487930	-512.216797	97.752647	27.373169	-553.840698	93.347458	-29.468908	-392.384186	66.129776	4.276490	-553.600830	585.038879	-322.728424	-516.754028	418.591553	-208.348953	-574.186340	271.192291	-264.934052	-639.939636	60.485722	-173.971680	-686.562866	61.906090	-131.397415	-509.044312	39.848640	-129.259369
79	0.78000000	-524.169739	1292.503296	42.601925	-510.778870	1284.562866	-278.491974	-569.048828	1346.565186	-112.012444	-451.883209	1198.859375	-103.217270	-603.168823	994.058777	137.344360	-521.546143	961.903809	-343.530670	-527.629959	775.050964	159.728203	-428.536026	772.326050	-286.177719	-546.389771	858.441772	11.341645	-554.203674	879.500671	-254.133545	-718.328430	913.080627	-65.243248	-718.354187	916.259033	-172.189301	-718.341309	914.669830	-118.716274	-675.693481	1095.465210	-119.333397	-450.890289	1004.380005	-115.068718	-538.737976	601.843201	115.795425	-415.610504	461.894562	48.410934	-452.155914	312.043671	100.322914	-492.257660	93.747986	27.740932	-534.285950	87.703697	-28.679649	-371.261627	67.073990	3.390256	-552.463257	584.913330	-322.993896	-515.826965	418.336761	-208.676727	-573.858459	271.042664	-265.090332	-639.938171	60.475899	-173.999771	-686.534119	61.997021	-131.414825	-509.060608	39.839386	-129.278732
80	0.79000000	-519.604248	1292.249023	42.663757	-506.627075	1284.736206	-278.448181	-564.617676	1346.543335	-111.793701	-447.699493	1198.624146	-103.394073	-600.578430	994.264160	137.246658	-518.000977	962.110046	-343.868835	-525.229095	775.247925	160.164787	-425.216446	772.664734	-285.729736	-542.547546	858.278625	11.116161	-551.174927	879.530823	-254.362198	-714.479126	913.408936	-64.882774	-714.951660	916.629761	-171.795486	-714.715393	915.019348	-118.339130	-671.697266	1095.676758	-119.023911	-447.123871	1004.095154	-115.750824	-536.287964	601.141113	116.001953	-413.242798	461.275177	48.003742	-441.690247	310.612061	100.111839	-472.881256	90.260689	28.139118	-515.260132	82.643394	-27.868895	-350.920013	68.375130	2.558360	-551.267822	584.751465	-323.181000	-514.789185	418.047668	-208.954071	-573.436951	270.883026	-265.208649	-639.931641	60.471973	-174.014221	-686.498413	62.097694	-131.423920	-509.074554	39.827934	-129.293488
81	0.80000000	-514.986145	1291.949341	42.744102	-502.483917	1284.835571	-278.379547	-560.167480	1346.468872	-111.545868	-443.489105	1198.336304	-103.565231	-597.834473	994.409668	137.175430	-514.362610	962.227417	-344.163483	-522.614716	775.395569	160.531326	-421.921356	772.876587	-285.179443	-538.611633	858.000183	10.906173	-548.132263	879.513916	-254.544846	-710.569519	913.647766	-64.427795	-711.517029	916.922729	-171.306931	-711.043274	915.285248	-117.867363	-667.670959	1095.827637	-118.648079	-443.328217	1003.749939	-116.427818	-534.046997	600.282349	116.195801	-411.072998	460.405060	47.535488	-431.674255	309.273346	99.865662	-454.306732	87.276314	28.535582	-496.955444	78.162476	-27.096508	-331.545685	69.977051	1.840521	-549.981262	584.552490	-323.286469	-513.630493	417.718506	-209.177460	-572.910889	270.709198	-265.288086	-639.919495	60.473980	-174.015259	-686.454712	62.208187	-131.424561	-509.085083	39.814301	-129.305298
82	0.81000000	-510.318268	1291.603027	42.845753	-498.351776	1284.860107	-278.284698	-555.698975	1346.340698	-111.267548	-439.252014	1197.996094	-103.727158	-594.931763	994.489746	137.131165	-510.634979	962.253967	-344.404633	-519.788971	775.486237	160.833191	-418.648651	772.956482	-284.537735	-534.574951	857.605652	10.707868	-545.069580	879.448975	-254.681564	-706.595093	913.794495	-63.876183	-708.045654	917.135437	-170.722656	-707.320374	915.464966	-117.299419	-663.612671	1095.915894	-118.206604	-439.500793	1003.347107	-117.093895	-531.972290	599.302917	116.367409	-409.067749	459.310455	47.007240	-422.338165	308.024048	99.597366	-436.752838	84.756760	28.894684	-479.569458	74.236237	-26.422052	-313.326111	71.800552	1.281416	-548.572144	584.317444	-323.310974	-512.342834	417.344635	-209.344559	-572.271240	270.516602	-265.327576	-639.900757	60.481873	-174.003830	-686.402222	62.328495	-131.416870	-509.091370	39.798592	-129.315628
83	0.82000000	-505.603516	1291.210449	42.971794	-494.231750	1284.810547	-278.161957	-551.212524	1346.159424	-110.957123	-434.987885	1197.605469	-103.875748	-591.866089	994.500610	137.114685	-506.825470	962.190247	-344.583130	-516.754959	775.514282	161.076187	-415.397339	772.902588	-283.816559	-530.432800	857.097778	10.517955	-541.980469	879.336121	-254.772766	-702.552124	913.849121	-63.227448	-704.533020	917.267517	-170.043289	-703.542572	915.558319	-116.635368	-659.520508	1095.941162	-117.701233	-435.638947	1002.890625	-117.742958	-530.005737	598.239197	116.506660	-407.197052	458.017548	46.422119	-413.896637	306.834351	99.318901	-420.427856	82.642975	29.178947	-463.297638	70.821297	-25.901112	-296.442993	73.743713	0.903156	-547.012512	584.048401	-323.257812	-510.920837	416.922607	-209.454178	-571.511780	270.300568	-265.326141	-639.874451	60.495598	-173.981461	-686.340027	62.458485	-131.401321	-509.092957	39.780968	-129.325623
84	0.83000000	-500.844757	1290.772827	43.125454	-490.123535	1284.689941	-278.009521	-546.707764	1345.927124	-110.612862	-430.696045	1197.167969	-104.006500	-588.634460	994.439819	137.127121	-502.944061	962.039368	-344.690796	-513.516586	775.475861	161.266472	-412.167419	772.716431	-283.028641	-526.183044	856.483215	10.333945	-538.858154	879.176514	-254.819092	-698.438110	913.814270	-62.482990	-700.974854	917.320679	-169.271240	-699.706482	915.567474	-115.877115	-655.392578	1095.905273	-117.134811	-431.739868	1002.385986	-118.368660	-528.076416	597.123596	116.602295	-405.434113	456.552124	45.784733	-406.526093	305.653076	99.037697	-405.519043	80.859344	29.350973	-448.324432	67.858917	-25.581739	-281.063782	75.683594	0.699718	-545.277649	583.747742	-323.131805	-509.361755	416.450317	-209.506134	-570.630005	270.057068	-265.283234	-639.839600	60.515114	-173.949966	-686.267578	62.597923	-131.378555	-509.089813	39.761654	-129.336197
85	0.84000000	-496.044739	1290.293213	43.309956	-486.025238	1284.503052	-277.825500	-542.184082	1345.647095	-110.233063	-426.375610	1196.687866	-104.114624	-585.235046	994.306763	137.169769	-499.002899	961.806458	-344.720856	-510.078735	775.369049	161.410645	-408.959808	772.402710	-282.187210	-521.826355	855.772644	10.154412	-535.695679	878.972412	-254.821487	-694.251770	913.695435	-61.646305	-697.366943	917.298828	-168.410965	-695.809357	915.497131	-115.028635	-651.226868	1095.811401	-116.511353	-427.800690	1001.839661	-118.964462	-526.104736	595.981018	116.642021	-403.754700	454.939240	45.100529	-400.346191	304.416229	98.753716	-392.182220	79.319580	29.375563	-434.813873	65.279716	-25.501213	-267.332458	77.480415	0.634794	-543.347046	583.417419	-322.938934	-507.665863	415.926910	-209.501007	-569.627869	269.783478	-265.199066	-639.795593	60.540455	-173.911392	-686.184387	62.746513	-131.349304	-509.082153	39.740936	-129.348007
